<?xml version="1.0" encoding="utf-8"?>
<!-- Generator: Adobe Illustrator 22.1.0, SVG Export Plug-In . SVG Version: 6.00 Build 0)  -->
<svg version="1.1" id="moon-icon" xmlns="http://www.w3.org/2000/svg" xmlns:xlink="http://www.w3.org/1999/xlink" x="0px" y="0px"
	 viewBox="0 0 512 512" style="enable-background:new 0 0 512 512;" xml:space="preserve">
<g>
	<g>
		<path d="M423.1,371.5c-4.6-4.6-11.7-5.7-17.5-2.7c-27.5,14.3-58.5,21.8-89.6,21.8c-107.5,0-196-87.5-196-195
			c0-31.1,7.5-62.1,21.8-89.6c3-5.8,1.9-12.9-2.7-17.5c-4.6-4.6-11.7-5.7-17.5-2.7C46.6,124.7,0,201.3,0,285.6
			c0,124.1,100.9,226,225,226c84.3,0,161.9-47.6,200.8-122.6C428.8,383.2,427.7,376.1,423.1,371.5z" fill="#FFFFFF"/>
	</g>
</g>
<g>
	<g>
		<path d="M381.8,211.7L324,187.6l-24.1-57.8c-4.7-11.2-23-11.2-27.7,0L248,187.6l-58.8,24.1c-5.6,2.3-9.2,7.8-9.2,13.8
			s3.6,11.5,9.2,13.8l58.8,24.1l24.1,57.8c2.3,5.6,7.8,9.2,13.8,9.2s11.5-3.6,13.8-9.2l24.1-57.8l57.8-24.1
			c5.6-2.3,9.2-7.8,9.2-13.8S387.4,214.1,381.8,211.7z" fill="#FFFFFF"/>
	</g>
</g>
<g>
	<g>
		<path d="M502.8,61.7l-37.6-15.3L449.8,8.8c-4.7-11.2-23-11.2-27.7,0l-15.3,37.6l-36.6,15.3c-5.6,2.3-9.2,7.8-9.2,13.8
			s3.6,11.5,9.2,13.8l36.6,15.3l15.3,36.6c2.3,5.6,7.8,9.2,13.8,9.2s11.5-3.6,13.8-9.2l15.3-36.6l37.6-15.3
			c5.6-2.3,9.2-7.8,9.2-13.8S508.4,64.1,502.8,61.7z" fill="#FFFFFF"/>
	</g>
</g>
</svg>
