<?xml version="1.0" encoding="utf-8"?>
<svg version="1.1" xmlns="http://www.w3.org/2000/svg" xmlns:xlink="http://www.w3.org/1999/xlink" x="0px"
	 y="0px" viewBox="0 0 364 361.9" style="enable-background:new 0 0 364 361.9;" xml:space="preserve">
<style type="text/css">
	.st0{fill:#2B9E72;}
</style>
<title>LogoHalf2</title>
<g>
	<path class="st0" d="M174.9,329.4l-36.6,32.4l-17.3-45.7l-3.5-9.1l-9.2-24.2l-4.2-11l-2.9-7.6l0,0l10.9,9.6l15.6,13.8l14.9,13.2
		l8.8,7.8L174.9,329.4z"/>
	<polygon class="st0" points="353.7,248.8 306.2,260.5 302.4,229.3 301,217.7 298.6,197.9 305.7,179.2 320.4,200.5 325.9,208.5 	"/>
	<polygon class="st0" points="303.8,321.1 256.3,309.4 267.5,280 271.6,269 278.7,250.4 286.1,230.9 291.2,217.3 292.2,225.5 
		293.6,237.1 296.8,262.8 297.9,272.5 	"/>
	<polygon class="st0" points="256,282.8 246.9,307 221.7,300.8 210.3,298 202.4,296.1 216.5,292.6 236.7,287.6 	"/>
	<polygon class="st0" points="243.4,316.1 226.1,361.9 189.4,329.4 182.1,323 162.8,305.8 154,298 147.8,292.6 161.9,296.1 
		182.1,301 201.5,305.8 212.9,308.6 	"/>
	<polygon class="st0" points="273.3,69.8 174.9,69.8 182.1,66 192.6,60.5 215.5,48.5 224.1,44 267.4,21.3 	"/>
	<path class="st0" d="M92.7,269l-25.1-6.2l-9.5-2.3l0,0l-47.5-11.7l27.8-40.3l23.5,20.8l8.8,7.8l14.9,13.3L92.7,269z"/>
	<polygon class="st0" points="78.2,230.9 72.1,225.5 63.3,217.7 43.9,200.5 36.6,194.1 0,161.6 43.3,138.9 54.5,168.2 58.6,179.2 
		65.7,197.9 73.1,217.3 	"/>
	<polygon class="st0" points="92.5,113 84.3,125 72.5,142.1 61.1,158.6 52,134.3 74.9,122.3 85.3,116.8 	"/>
	<polygon class="st0" points="135.6,79.5 122.8,86.3 104.4,95.9 86.7,105.2 76.3,110.7 48.5,125.2 31.1,79.5 	"/>
	<polygon class="st0" points="209.9,40.5 182.1,55.1 171.8,60.5 154.1,69.8 134.1,69.8 148.8,48.5 154.4,40.5 182.1,0.2 	"/>
	<polygon class="st0" points="108,309.4 60.5,321.1 66.4,272.5 96.8,280 	"/>
	<polygon class="st0" points="364.3,161.6 327.7,194.1 309.9,168.2 321,138.9 	"/>
	<polygon class="st0" points="140.2,44 122.4,69.8 91,69.8 96.9,21.3 	"/>
	<polygon class="st0" points="280,125 271.8,113 259.9,95.9 248.6,79.5 274.5,79.5 277.6,105.2 279,116.8 	"/>
	<polygon class="st0" points="333.2,79.5 315.8,125.2 312.4,134.3 303.2,158.6 291.8,142.1 289.4,122.3 288,110.7 284.2,79.5 	"/>
	<path class="st0" d="M182.1,76.8c59.2,0,107.1,48,107.1,107.1s-48,107.1-107.1,107.1S75,243.1,75,183.9S123,76.8,182.1,76.8z
		 M274.9,183.9l-57.3-35.4l21.9,35.4l-21.9,35.4L274.9,183.9z M146.7,148.5l-57.3,35.4l57.3,35.4l-21.9-35.4L146.7,148.5z
		 M182.1,262.9l48.8-78.9L182.1,105l-48.8,78.9L182.1,262.9z"/>
</g>
</svg>
