<?xml version="1.0" encoding="utf-8"?>
<svg version="1.1" id="sun-icon" xmlns="http://www.w3.org/2000/svg" xmlns:xlink="http://www.w3.org/1999/xlink" x="0px" y="0px"
	 viewBox="0 0 330 330" style="enable-background:new 0 0 330 330;" xml:space="preserve">
<g id="XMLID_476_">
	<path id="XMLID_477_" d="M165,250c46.9,0,85-38.1,85-85c0-46.9-38.1-85-85-85c-46.9,0-85,38.1-85,85C80,211.9,118.1,250,165,250z"
		fill="#FFFFFF"/>
	<path id="XMLID_478_" d="M165,50c8.3,0,15-6.7,15-15V15c0-8.3-6.7-15-15-15c-8.3,0-15,6.7-15,15v20C150,43.3,156.7,50,165,50z" fill="#FFFFFF"/>
	<path id="XMLID_479_" d="M165,330c8.3,0,15-6.7,15-15v-20c0-8.3-6.7-15-15-15c-8.3,0-15,6.7-15,15v20C150,323.3,156.7,330,165,330z"
		fill="#FFFFFF"/>
	<path id="XMLID_481_" d="M280,165c0,8.3,6.7,15,15,15h20c8.3,0,15-6.7,15-15s-6.7-15-15-15h-20C286.7,150,280,156.7,280,165z" fill="#FFFFFF"/>
	<path id="XMLID_482_" d="M15,180h20c8.3,0,15-6.7,15-15s-6.7-15-15-15H15c-8.3,0-15,6.7-15,15S6.7,180,15,180z" fill="#FFFFFF"/>
	<path id="XMLID_483_" d="M256.9,88.1c3.8,0,7.7-1.5,10.6-4.4l14.1-14.1c5.9-5.9,5.9-15.4,0-21.2s-15.4-5.9-21.2,0l-14.1,14.1
		c-5.9,5.9-5.9,15.4,0,21.2C249.2,86.6,253.1,88.1,256.9,88.1z" fill="#FFFFFF"/>
	<path id="XMLID_484_" d="M69.5,281.7l14.1-14.1c5.9-5.9,5.9-15.4,0-21.2c-5.9-5.9-15.4-5.9-21.2,0l-14.1,14.1
		c-5.9,5.9-5.9,15.4,0,21.2c2.9,2.9,6.8,4.4,10.6,4.4C62.8,286.1,66.6,284.6,69.5,281.7z" fill="#FFFFFF"/>
	<path id="XMLID_486_" d="M271.1,286.1c3.8,0,7.7-1.5,10.6-4.4c5.9-5.9,5.9-15.4,0-21.2l-14.1-14.1c-5.9-5.9-15.4-5.9-21.2,0
		s-5.9,15.4,0,21.2l14.1,14.1C263.4,284.6,267.2,286.1,271.1,286.1z" fill="#FFFFFF"/>
	<path id="XMLID_487_" d="M62.5,83.7c2.9,2.9,6.8,4.4,10.6,4.4c3.8,0,7.7-1.5,10.6-4.4c5.9-5.9,5.9-15.4,0-21.2L69.5,48.3
		c-5.9-5.9-15.4-5.9-21.2,0c-5.9,5.9-5.9,15.4,0,21.2L62.5,83.7z" fill="#FFFFFF"/>
</g>
</svg>

